<?xml version="1.0" standalone="no"?>
<!DOCTYPE svg PUBLIC "-//W3C//DTD SVG 20010904//EN"
 "http://www.w3.org/TR/2001/REC-SVG-20010904/DTD/svg10.dtd">
<svg version="1.0" xmlns="http://www.w3.org/2000/svg"
 width="204.000000pt" height="192.000000pt" viewBox="0 0 204.000000 192.000000"
 preserveAspectRatio="xMidYMid meet">

<g transform="translate(0.000000,192.000000) scale(0.100000,-0.100000)"
fill="#000000" stroke="none">
<path d="M605 1883 c-285 -129 -492 -374 -572 -678 -23 -87 -26 -120 -26 -250
0 -131 3 -162 27 -250 49 -183 135 -335 264 -464 88 -89 167 -145 284 -201
l82 -40 356 0 356 0 93 45 c268 130 457 363 537 660 24 88 27 119 27 250 0
130 -3 163 -26 250 -80 304 -289 551 -573 679 l-82 36 -333 0 -334 0 -80 -37z
m253 -138 l122 -88 0 -142 0 -142 -196 -142 -197 -143 -131 47 -132 46 -47
141 -47 142 54 71 c59 76 127 138 222 203 69 47 192 103 214 98 8 -1 70 -42
138 -91z m542 66 c131 -56 272 -166 359 -281 l51 -66 -47 -142 -47 -142 -134
-44 -133 -45 -194 141 -195 141 0 142 0 142 128 92 c70 50 131 91 135 91 4 0
39 -13 77 -29z m-970 -752 c69 -23 128 -44 132 -48 3 -3 39 -109 79 -234 l73
-228 -96 -96 -96 -95 -123 18 c-145 22 -143 20 -211 151 -51 96 -91 234 -103
348 l-7 70 109 77 c59 43 110 78 113 78 3 0 61 -19 130 -41z m1428 -40 l104
-74 -7 -70 c-4 -38 -18 -113 -32 -165 -28 -108 -107 -268 -138 -279 -11 -4
-76 -16 -144 -25 l-124 -18 -92 93 -93 94 72 219 71 218 120 44 c66 23 129 41
140 40 11 -2 66 -36 123 -77z m-484 -598 l88 -88 -18 -111 -18 -111 -50 -22
c-122 -52 -263 -75 -415 -66 -117 7 -195 24 -288 63 -68 28 -63 19 -84 147
l-11 69 103 104 104 104 250 0 250 0 89 -89z"/>
</g>
</svg>
