<?xml version="1.0" standalone="no"?>
<!DOCTYPE svg PUBLIC "-//W3C//DTD SVG 20010904//EN"
 "http://www.w3.org/TR/2001/REC-SVG-20010904/DTD/svg10.dtd">
<svg version="1.0" xmlns="http://www.w3.org/2000/svg"
 width="204.000000pt" height="204.000000pt" viewBox="0 0 204.000000 204.000000"
 preserveAspectRatio="xMidYMid meet">

<g transform="translate(0.000000,204.000000) scale(0.100000,-0.100000)"
fill="#000000" stroke="none">
<path d="M881 2029 c-363 -47 -700 -319 -817 -660 -170 -496 27 -1004 486
-1252 145 -79 360 -125 525 -113 292 20 545 149 729 370 217 261 286 598 190
934 -46 162 -132 307 -256 430 -226 227 -537 333 -857 291z m320 -105 c587
-111 912 -771 645 -1309 -159 -320 -469 -514 -822 -515 -261 0 -470 86 -654
270 -185 185 -270 393 -270 659 1 272 120 524 335 704 91 76 262 161 375 186
108 24 279 26 391 5z"/>
<path d="M548 1404 c-15 -8 -32 -23 -38 -34 -14 -26 -14 -674 0 -701 29 -53
121 -61 160 -12 19 25 20 38 20 360 0 210 -4 341 -10 354 -12 22 -61 49 -87
49 -10 -1 -30 -7 -45 -16z"/>
<path d="M1398 1404 c-15 -8 -32 -23 -38 -34 -6 -12 -10 -144 -10 -355 l0
-336 24 -24 c32 -32 69 -40 107 -25 57 24 59 37 59 389 0 345 -2 361 -51 387
-35 18 -57 17 -91 -2z"/>
<path d="M393 1238 c-12 -13 -24 -37 -28 -55 -4 -22 -11 -30 -21 -26 -8 3 -24
-3 -34 -12 -18 -16 -20 -31 -20 -125 0 -94 2 -109 20 -125 10 -9 26 -15 34
-12 11 4 18 -4 25 -30 12 -43 38 -73 63 -73 17 0 18 13 18 240 0 226 -1 240
-18 240 -10 0 -28 -10 -39 -22z"/>
<path d="M1590 1020 c0 -227 1 -240 18 -240 25 0 51 30 63 73 7 26 14 34 25
30 8 -3 24 3 34 12 18 16 20 31 20 125 0 94 -2 109 -20 125 -10 9 -26 15 -34
12 -11 -4 -18 4 -25 30 -12 43 -38 73 -63 73 -17 0 -18 -13 -18 -240z"/>
<path d="M740 1020 l0 -90 280 0 280 0 0 90 0 90 -280 0 -280 0 0 -90z"/>
</g>
</svg>
